<svg id="svg" version="1.1" width="400" height="225.05494505494505" viewBox="0 0 400 225.05494505494505" xmlns="http://www.w3.org/2000/svg" xmlns:xlink="http://www.w3.org/1999/xlink"><g id="svgg"><path id="path0" d="M195.275 28.376 C 166.670 30.525,139.703 48.308,127.056 73.361 L 126.377 74.707 130.276 77.732 C 132.421 79.396,138.626 84.209,144.066 88.428 C 149.505 92.646,154.066 96.186,154.201 96.293 C 154.370 96.428,154.634 95.958,155.050 94.783 C 166.400 62.666,207.352 51.224,232.654 73.101 L 233.988 74.255 246.060 62.177 L 258.132 50.100 257.253 49.330 C 239.371 33.676,218.525 26.628,195.275 28.376 " stroke="none" fill="#ea4335" fill-rule="evenodd"></path><path id="path1" d="M201.758 113.516 L 201.758 129.890 224.420 129.890 L 247.082 129.890 246.931 130.714 C 245.372 139.252,239.400 148.522,231.939 153.988 L 230.159 155.292 243.464 165.613 C 250.783 171.290,256.964 176.071,257.200 176.238 C 258.076 176.857,265.109 168.879,269.287 162.527 C 280.522 145.448,285.140 121.322,281.466 98.901 L 281.196 97.253 241.477 97.197 L 201.758 97.142 201.758 113.516 " stroke="none" fill="#4484f3" fill-rule="evenodd"></path><path id="path2" d="M152.189 130.266 C 146.642 134.516,126.581 150.172,126.486 150.325 C 126.025 151.071,132.709 161.413,136.956 166.524 C 161.871 196.504,205.369 205.621,240.440 188.214 C 246.843 185.036,257.253 177.813,257.253 176.547 C 257.253 176.332,230.447 155.385,230.172 155.385 C 230.111 155.385,229.256 155.868,228.272 156.459 C 201.545 172.509,165.635 159.683,154.991 130.283 L 154.378 128.589 152.189 130.266 " stroke="none" fill="#34ac54" fill-rule="evenodd"></path><path id="path3" d="M0.000 112.527 L 0.000 225.055 200.000 225.055 L 400.000 225.055 400.000 112.527 L 400.000 0.000 200.000 0.000 L 0.000 0.000 0.000 112.527 M207.871 28.363 C 226.773 29.718,242.455 36.376,257.253 49.330 L 258.132 50.100 246.060 62.177 L 233.988 74.255 232.654 73.101 C 204.681 48.914,160.573 65.225,152.780 102.637 C 148.521 123.084,158.165 145.141,176.155 156.099 C 203.576 172.802,241.745 159.113,246.931 130.714 L 247.082 129.890 224.420 129.890 L 201.758 129.890 201.758 113.516 L 201.758 97.142 241.477 97.197 L 281.196 97.253 281.466 98.901 C 288.912 144.343,264.917 184.130,223.947 194.277 C 161.041 209.857,104.537 154.577,119.790 92.376 C 129.540 52.617,166.947 25.431,207.871 28.363 " stroke="none" fill="#fbfbfb" fill-rule="evenodd"></path><path id="path4" d="M125.632 76.209 C 114.686 97.945,114.683 127.104,125.625 148.832 L 126.377 150.326 136.870 142.148 C 142.641 137.651,148.896 132.797,150.769 131.362 C 154.773 128.296,154.451 128.824,153.771 126.433 C 151.102 117.053,151.099 107.616,153.763 98.718 C 154.064 97.711,154.281 96.750,154.243 96.583 C 154.206 96.415,148.736 92.058,142.088 86.901 C 135.440 81.743,129.187 76.890,128.193 76.117 L 126.386 74.711 125.632 76.209 " stroke="none" fill="#fbbc05" fill-rule="evenodd"></path></g></svg>